# xmcd
#
# Track frame offsets:
#	150
#	15372
#	31137
#	47137
#	61627
#	76870
#	90555
#	116735
#	131517
#	144022
#	156100
#	169745
#
# Disc length: 2427 seconds
#
# Revision: 0
# Processed by: cddbd v1.5.1PL2 Copyright (c) Steve Scherf et al.
# Submitted via: EasyCDDAExtractor 9.0.0.1
#
DISCID=8309790c
DTITLE=The Kingsmen Quartet - We Have A King
DYEAR=2001
DGENRE=Christmas
TTITLE0=Beautiful Star of Bethlehem
TTITLE1=We Have A King
TTITLE2=Sleep Little Baby
TTITLE3=Grandma's House for Christmas
TTITLE4=White Christmas
TTITLE5=Little One
TTITLE6=Medley
TTITLE7=Mary, Did You Know
TTITLE8=Away In A Manger
TTITLE9=Mary's Little Boy Child
TTITLE10=What A Lovely Name
TTITLE11=Let There Be Peace/Silent Night
EXTD=
EXTT0=
EXTT1=
EXTT2=
EXTT3=
EXTT4=
EXTT5=
EXTT6=
EXTT7=
EXTT8=
EXTT9=
EXTT10=
EXTT11=
PLAYORDER=
